<?xml version="1.0" standalone="no"?>
<!DOCTYPE svg PUBLIC "-//W3C//DTD SVG 20010904//EN"
 "http://www.w3.org/TR/2001/REC-SVG-20010904/DTD/svg10.dtd">
<svg version="1.0" xmlns="http://www.w3.org/2000/svg"
 width="200.000000pt" height="200.000000pt" viewBox="0 0 200.000000 200.000000"
 preserveAspectRatio="xMidYMid meet">

<g transform="translate(0.000000,200.000000) scale(0.100000,-0.100000)"
fill="#000000" stroke="none">
<path d="M742 1193 l3 -258 255 0 255 0 3 258 2 257 -260 0 -260 0 2 -257z
m231 137 c101 -38 194 -165 185 -254 -5 -48 -20 -33 -38 37 -26 106 -93 174
-195 198 -76 18 -77 18 -70 29 10 16 60 12 118 -10z m-12 -95 c14 -8 40 -30
57 -49 45 -52 66 -146 33 -146 -10 0 -15 13 -26 68 -10 49 -64 97 -124 112
-50 12 -59 19 -44 34 10 9 70 -2 104 -19z m-18 -103 c17 -17 27 -36 27 -55 0
-32 -23 -33 -29 -1 -5 29 -30 52 -62 59 -16 4 -29 10 -29 14 0 29 53 19 93
-17z m-58 -82 c0 -18 -6 -26 -23 -28 -24 -4 -38 18 -28 44 3 9 15 14 28 12 17
-2 23 -10 23 -28z"/>
<path d="M794 783 c-4 -16 -12 -34 -18 -42 -8 -11 -8 -15 2 -18 8 -3 12 -28
12 -79 0 -59 3 -74 15 -74 12 0 15 15 15 75 0 60 3 75 15 75 8 0 15 7 15 15 0
8 -7 15 -15 15 -8 0 -15 7 -15 15 0 9 7 18 15 21 24 9 18 24 -10 24 -19 0 -26
-7 -31 -27z"/>
<path d="M587 793 c-4 -3 -7 -55 -7 -115 0 -89 3 -108 15 -108 12 0 15 19 15
115 0 105 -5 127 -23 108z"/>
<path d="M1010 686 l0 -116 44 0 c24 0 48 6 54 13 12 14 14 178 2 197 -4 7
-28 15 -54 17 l-46 6 0 -117z m80 49 c0 -31 -3 -35 -25 -35 -22 0 -25 4 -25
35 0 31 3 35 25 35 22 0 25 -4 25 -35z m-2 -102 c-2 -31 -7 -39 -25 -41 -21
-3 -23 1 -23 37 0 37 2 41 26 41 23 0 25 -3 22 -37z"/>
<path d="M1160 686 l0 -116 43 0 c24 0 48 5 55 12 14 14 16 175 3 197 -5 7
-29 16 -55 18 l-46 6 0 -117z m78 -3 c-3 -83 -4 -88 -25 -91 -22 -3 -23 -1
-23 87 0 91 0 91 25 91 l26 0 -3 -87z"/>
<path d="M1307 793 c-4 -3 -7 -55 -7 -115 0 -89 3 -108 15 -108 12 0 15 16 16
83 l1 82 26 -82 c37 -121 52 -112 52 32 0 70 -4 115 -10 115 -6 0 -10 -32 -10
-77 0 -89 -10 -87 -35 10 -16 61 -30 78 -48 60z"/>
<path d="M655 742 c-3 -3 -5 -43 -5 -89 0 -76 2 -83 20 -83 18 0 20 7 20 75 0
60 3 75 15 75 12 0 15 -15 15 -75 0 -60 3 -75 15 -75 12 0 15 16 15 85 0 61
-4 85 -12 86 -7 0 -27 2 -45 3 -18 2 -35 1 -38 -2z"/>
<path d="M887 743 c-16 -4 -17 -15 -15 -86 l3 -82 45 0 45 0 3 75 c4 92 -12
111 -81 93z m51 -85 c-2 -50 -6 -63 -20 -66 -16 -3 -18 5 -18 62 0 60 2 66 20
66 19 0 21 -5 18 -62z"/>
</g>
</svg>
